<svg width="200" height="200" viewBox="0 0 200 200" fill="none" xmlns="http://www.w3.org/2000/svg" role="img" aria-labelledby="title desc">
  <title id="title">Salve Mais</title>
  <desc id="desc">Logo Salve Mais com monograma S e sinal de mais integrado.</desc>
  <defs>
    <linearGradient id="bg" x1="30" y1="24" x2="172" y2="178" gradientUnits="userSpaceOnUse">
      <stop offset="0" stop-color="#2563EB"/>
      <stop offset="0.55" stop-color="#1D4ED8"/>
      <stop offset="1" stop-color="#7C3AED"/>
    </linearGradient>
    <linearGradient id="sFill" x1="60" y1="48" x2="132" y2="152" gradientUnits="userSpaceOnUse">
      <stop offset="0" stop-color="#FFFFFF"/>
      <stop offset="1" stop-color="#DBEAFE"/>
    </linearGradient>
  </defs>

  <rect x="24" y="24" width="152" height="152" rx="42" fill="url(#bg)"/>

  <path d="M128 58H88C70.9 58 58 68.4 58 83C58 96.7 68.2 104.2 84.6 107.4L111 112.6C122.4 114.8 128 119.4 128 127.4C128 136.4 120 142 106.8 142H67" stroke="url(#sFill)" stroke-width="18" stroke-linecap="round" stroke-linejoin="round"/>
  <path d="M126 58C139.8 58 151 69.2 151 83V88H146C139.9 88 135 83.1 135 77V73H131C124.9 73 120 68.1 120 62V58H126Z" fill="#FFFFFF"/>
  <path d="M136 68V83" stroke="#2563EB" stroke-width="6" stroke-linecap="round"/>
  <path d="M128.5 75.5H143.5" stroke="#2563EB" stroke-width="6" stroke-linecap="round"/>

  <path d="M64 130C79.6 147.2 108.8 153 130 139" stroke="#FFFFFF" stroke-width="8" stroke-linecap="round" opacity="0.28"/>
  <path d="M58 50H91" stroke="#FFFFFF" stroke-width="7" stroke-linecap="round" opacity="0.18"/>
</svg>
